<svg xmlns="http://www.w3.org/2000/svg" viewBox="0 0 24 24" width="24" height="24" aria-label="ClawCloud Run">
  <title>ClawCloud Run</title>
  <defs>
    <linearGradient id="clawcloud-bg" x1="2" y1="2" x2="22" y2="22" gradientUnits="userSpaceOnUse">
      <stop offset="0" stop-color="#0F766E"/>
      <stop offset="0.55" stop-color="#06B6D4"/>
      <stop offset="1" stop-color="#38BDF8"/>
    </linearGradient>
  </defs>
  <rect x="1" y="1" width="22" height="22" rx="6" fill="url(#clawcloud-bg)"/>
  <path fill="#FFFFFF" d="M8.15 17.5h7.75a3.1 3.1 0 0 0 .28-6.18A4.63 4.63 0 0 0 7.5 9.66a2.92 2.92 0 0 0 .65 5.81Z"/>
  <path fill="#CFFAFE" d="M7.25 18.75c1.52 1.04 3.12 1.56 4.8 1.56 1.68 0 3.28-.52 4.8-1.56-.65-.23-1.29-.34-1.93-.34H9.18c-.64 0-1.28.11-1.93.34Z"/>
  <path fill="#FFFFFF" d="M8.55 7.95c.22-.93 1.02-1.62 2-1.62.71 0 1.37.37 1.74.97.29-.14.62-.22.95-.22 1.08 0 1.99.74 2.23 1.75-.48-.23-1-.35-1.57-.35-.42 0-.82.06-1.2.19A2.74 2.74 0 0 0 10.55 8c-.71 0-1.38.16-2 .45Z"/>
</svg>
