<svg width="122" height="28" viewBox="0 0 122 28" fill="none" xmlns="http://www.w3.org/2000/svg">
<g clip-path="url(#clip0_1622_207714)">
<path d="M4.48893 24.3095L12.341 24.317L10.7874 26L3.91719 25.9924L2.40151 24.3388V22.0676L4.48893 24.3095ZM23.7886 25.9974H23.7701L22.2165 24.317H23.7886V25.9974ZM21.7736 25.9932H12.7974L17.277 20.9184L21.7736 25.9932ZM32.1568 24.3388L30.6411 25.9932H30.1839V24.1878L32.1568 22.0683V24.3388ZM26.7097 19.7643C26.8801 19.6563 27.0924 19.6562 27.2629 19.7643C27.4333 19.8725 27.5347 20.072 27.5281 20.2839V23.3526C27.5283 23.5065 27.4713 23.6541 27.3698 23.763C27.2682 23.8719 27.1303 23.9333 26.9867 23.9335C26.8428 23.9337 26.7045 23.8727 26.6027 23.7639C26.5009 23.6549 26.4434 23.5066 26.4436 23.3526V20.2839C26.4369 20.0719 26.5391 19.8724 26.7097 19.7643ZM3.96771 3.0895C4.50899 11.5699 8.19199 12.6121 11.0148 12.6121H24.0067C24.6196 12.5656 25.2199 12.8155 25.6428 13.2928C26.3549 14.1532 26.3499 15.609 26.3256 16.1425C24.8485 16.4782 23.7916 17.8741 23.7911 19.4907V23.021H21.2743L17.2821 18.742L13.2495 23.021H4.98911L2.4074 20.257V18.3332H4.36684V12.7691H2.40487V4.76235L3.96771 3.0895ZM32.1644 4.76319V8.98771L29.7166 8.98267L29.7292 14.1272L32.1644 14.1506V20.2612L30.1822 22.3823V19.4949C30.1817 17.8965 29.1476 16.5107 27.6914 16.1576C27.7254 15.3748 27.6808 13.5548 26.6717 12.3292C25.9917 11.5298 25.0138 11.0971 24.0049 11.149H11.0123C9.35855 11.149 5.57443 11.1445 5.28467 2H29.5827L32.1644 4.76319ZM3.51301 17.6248H2.40487V16.4387H3.51301V17.6248ZM1.66219 16.066V17.2521H0.554065V16.066H1.66219ZM3.74288 15.5533H1.89628V13.5782H3.74288V15.5533ZM1.10813 14.5082H0V13.3222H1.10813V14.5082ZM32.1576 13.4842H31.0495V12.299H32.1576V13.4842ZM34 12.1353H32.8919V10.9502H34V12.1353ZM32.1568 11.7156H30.3102V9.74062H32.1568V11.7156ZM34 9.90262H32.8919V8.71744H34V9.90262Z" fill="black"/>
</g>
<defs>
<clipPath id="clip0_1622_207714">
<rect width="122" height="28" fill="white"/>
</clipPath>
</defs>
</svg>